<?xml version="1.0" encoding="UTF-8" standalone="no"?>
<!-- Created with Inkscape (http://www.inkscape.org/) -->

<svg
   xmlns:dc="http://purl.org/dc/elements/1.1/"
   xmlns:cc="http://creativecommons.org/ns#"
   xmlns:rdf="http://www.w3.org/1999/02/22-rdf-syntax-ns#"
   xmlns:svg="http://www.w3.org/2000/svg"
   xmlns="http://www.w3.org/2000/svg"
   xmlns:xlink="http://www.w3.org/1999/xlink"
   xmlns:sodipodi="http://sodipodi.sourceforge.net/DTD/sodipodi-0.dtd"
   xmlns:inkscape="http://www.inkscape.org/namespaces/inkscape"
   width="32mm"
   height="32mm"
   viewBox="0 0 32 32"
   version="1.1"
   id="svg8"
   inkscape:version="0.92.3 (2405546, 2018-03-11)"
   sodipodi:docname="fire.svg">
  <defs
     id="defs2">
    <inkscape:path-effect
       effect="bend_path"
       id="path-effect2479"
       is_visible="true"
       bendpath="m 86.057302,106.06561 c 64.502318,26.46122 -52.116143,89.47181 13.229153,110.74703"
       prop_scale="1"
       scale_y_rel="false"
       vertical="false" />
    <inkscape:path-effect
       effect="bend_path"
       id="path-effect2440"
       is_visible="true"
       bendpath="M 133.30431,216.05669 C 219.12136,188.18726 70.224694,131.04945 132.92633,86.032862"
       prop_scale="1"
       scale_y_rel="false"
       vertical="false" />
    <inkscape:path-effect
       effect="bend_path"
       id="path-effect2419"
       is_visible="true"
       bendpath="M 34.017858,259.95834 C 61.566938,121.52661 218.74484,377.45615 230.94345,190.41072"
       prop_scale="1"
       scale_y_rel="false"
       vertical="false" />
    <inkscape:path-effect
       effect="bend_path"
       id="path-effect2347"
       is_visible="true"
       bendpath="M 19.654762,252.39882 C 61.416689,206.06135 99.53625,282.26037 158.37202,236.14584"
       prop_scale="1"
       scale_y_rel="false"
       vertical="false" />
    <inkscape:path-effect
       effect="bend_path"
       id="path-effect2266"
       is_visible="true"
       bendpath="M 29.481032,243.35848 C 69.653916,172.96738 135.02427,268.49367 183.96546,182.47975"
       prop_scale="0.61525833"
       scale_y_rel="false"
       vertical="false" />
    <inkscape:path-effect
       effect="bend_path"
       id="path-effect2244"
       is_visible="true"
       bendpath="m 176.13693,173.26552 c 16.4026,42.72428 -17.79756,77.04615 -19.2768,117.92922"
       prop_scale="1"
       scale_y_rel="false"
       vertical="false" />
    <inkscape:path-effect
       effect="bend_path"
       id="path-effect2201"
       is_visible="true"
       bendpath="M 96.217031,130.75836 C 148.20414,176.252 88.07423,214.27983 86.060788,259.58227"
       prop_scale="-1.3653044"
       scale_y_rel="false"
       vertical="false" />
    <inkscape:path-effect
       effect="bend_path"
       id="path-effect2171"
       is_visible="true"
       bendpath="M 95.306177,290.05099 C 41.061096,262.10208 107.46559,206.74149 88.891707,164.43432"
       prop_scale="1"
       scale_y_rel="false"
       vertical="false" />
    <inkscape:path-effect
       effect="bend_path"
       id="path-effect2067"
       is_visible="true"
       bendpath="m 83.541599,255.51014 c 57.488791,-2.23326 0.83282,-79.62806 42.996651,-103.31672"
       prop_scale="1"
       scale_y_rel="false"
       vertical="false" />
    <inkscape:path-effect
       effect="bend_path"
       id="path-effect1733"
       is_visible="true"
       bendpath="M 23.519718,273.48029 C 70.847577,256.37303 36.731731,190.83292 70.024617,162.29617"
       prop_scale="1"
       scale_y_rel="false"
       vertical="false" />
    <inkscape:path-effect
       effect="bend_path"
       id="path-effect1583"
       is_visible="true"
       bendpath="m 13.898015,268.66944 c 41.044577,-87.023 180.139665,42.61252 180.139665,-82.31902"
       prop_scale="1"
       scale_y_rel="false"
       vertical="false" />
    <linearGradient
       inkscape:collect="always"
       id="linearGradient1390">
      <stop
         style="stop-color:#ffb200;stop-opacity:1"
         offset="0"
         id="stop1386" />
      <stop
         style="stop-color:#cb0000;stop-opacity:1"
         offset="1"
         id="stop1388" />
    </linearGradient>
    <radialGradient
       inkscape:collect="always"
       xlink:href="#linearGradient1390"
       id="radialGradient1392"
       cx="112.2532"
       cy="236.59709"
       fx="112.2532"
       fy="236.59709"
       r="45.735119"
       gradientUnits="userSpaceOnUse"
       gradientTransform="matrix(1.4973913,-1.2846943,1.318743,1.5370741,-367.8445,17.140842)" />
  </defs>
  <sodipodi:namedview
     id="base"
     pagecolor="#ffffff"
     bordercolor="#666666"
     borderopacity="1.0"
     inkscape:pageopacity="0.0"
     inkscape:pageshadow="2"
     inkscape:zoom="2.8"
     inkscape:cx="39.495747"
     inkscape:cy="60.968791"
     inkscape:document-units="mm"
     inkscape:current-layer="g2537"
     showgrid="false"
     inkscape:object-nodes="false"
     inkscape:snap-nodes="true"
     inkscape:snap-global="true"
     inkscape:window-width="1366"
     inkscape:window-height="705"
     inkscape:window-x="-8"
     inkscape:window-y="-8"
     inkscape:window-maximized="1"
     showguides="true"
     inkscape:guide-bbox="true">
    <sodipodi:guide
       position="302.01456,-35.814116"
       orientation="0,1"
       id="guide853"
       inkscape:locked="false" />
  </sodipodi:namedview>
  <metadata
     id="metadata5">
    <rdf:RDF>
      <cc:Work
         rdf:about="">
        <dc:format>image/svg+xml</dc:format>
        <dc:type
           rdf:resource="http://purl.org/dc/dcmitype/StillImage" />
        <dc:title></dc:title>
      </cc:Work>
    </rdf:RDF>
  </metadata>
  <g
     inkscape:label="Layer 1"
     inkscape:groupmode="layer"
     id="layer1"
     transform="translate(0,-265)">
    <g
       id="g2537"
       transform="matrix(1.3530685,0,0,1.3530685,-37.759556,-38.076146)"
       style="stroke:#000000;stroke-width:0;stroke-miterlimit:4;stroke-dasharray:none;stroke-opacity:1">
      <g
         id="g842"
         transform="matrix(0.12734984,0,0,0.12734984,24.130413,216.32684)">
        <circle
           r="121.46408"
           cy="169"
           cx="128"
           id="path2541"
           style="opacity:1;fill:#00b2ff;fill-opacity:1;stroke:#000000;stroke-width:6.99130487;stroke-miterlimit:4;stroke-dasharray:none;stroke-opacity:1"
           transform="matrix(0.73906089,0,0,0.73906089,27.906611,28.140591)" />
        <path
           sodipodi:nodetypes="cccccccccccccccccccccccccccccccccscccccccccccccccccccccc"
           id="path2509"
           d="m 137.20724,81.840402 c 0,0 -8.8473,4.455148 -15.78269,9.714135 -2.65998,2.020073 -5.63991,4.922917 -8.03672,9.027353 -1.80608,3.14934 -3.18466,6.91209 -3.75222,11.13627 -0.32857,2.51507 -0.40244,5.0924 -0.2279,7.67499 -0.98202,-1.81269 -2.15639,-3.39626 -3.42149,-4.7408 -2.61696,-2.75398 -5.51043,-4.55744 -7.993829,-5.77226 -6.8203,-3.34385 -13.102775,-4.15478 -13.102775,-4.15478 0,0 5.785765,2.71317 10.611455,7.66361 1.71536,1.76608 3.53123,3.97946 4.700489,6.45284 0.85266,1.78651 1.43409,3.77255 1.56424,5.76812 0.14209,1.80294 -0.0668,3.70057 -0.50849,5.66374 -0.90179,4.25548 -3.079869,8.32834 -5.645129,13.03331 -2.58694,4.59406 -5.58984,9.22946 -8.45789,14.06478 -0.25312,0.42675 -0.50616,0.85704 -0.75861,1.28984 -3.07807,5.24117 -6.12114,10.88364 -8.54676,16.95607 -1.12007,2.7987 -2.08367,5.70413 -2.78329,8.71627 -0.66445,2.81341 -1.03799,5.7402 -0.99684,8.70076 0.0333,2.89709 0.58762,5.74362 1.63194,8.35297 1.20226,2.91737 2.97134,5.26088 4.90358,7.04143 2.69933,2.45938 5.61068,3.94264 8.0486,4.89428 6.7529,2.64887 26.179459,3.36707 26.179459,3.36707 0,0 -18.050185,-3.93405 -23.034555,-8.29322 -1.75481,-1.54268 -3.516323,-2.2249 -4.754393,-4.46662 -0.87426,-1.57119 -2.18804,-3.14423 -2.33673,-4.90346 -0.16808,-1.58953 -0.475421,-3.38649 -0.07266,-5.15736 0.42246,-1.85617 1.16006,-3.73497 2.06706,-5.749 0.98149,-2.15205 2.17256,-4.29086 3.49178,-6.54379 2.85685,-4.87496 6.21718,-9.82413 9.381341,-15.07402 0.25927,-0.42719 0.517457,-0.85605 0.774107,-1.28674 2.91476,-4.89136 7.32061,-10.38626 9.59628,-16.07356 2.14423,-5.18978 2.28841,-8.04851 2.51525,-13.86305 1.58997,4.68585 3.4853,6.56827 5.86722,10.69851 3.56901,6.33972 7.65328,12.12225 11.78429,17.28318 0.52693,0.6583 1.05688,1.30957 1.58957,1.95492 4.25985,5.2056 8.64737,9.79555 12.90722,15.00115 1.69868,2.08182 3.2121,3.93854 4.43642,5.78569 1.07633,1.6758 1.99813,3.07461 2.53421,4.39302 0.52663,1.16972 0.9128,2.396 0.96791,3.53777 0.15504,1.41508 -0.41802,3.18608 -1.27745,4.92217 -1.35469,2.64686 -3.67736,5.16094 -5.82961,7.23419 -6.39234,6.10594 -30.77063,10.58663 -30.77063,10.58663 -0.0548,0.15622 25.11074,-0.83364 34.65617,-3.37415 3.30504,-0.86576 7.33383,-2.32287 11.37451,-5.13302 2.74804,-1.91544 5.46647,-4.68164 7.53855,-8.57467 1.67385,-3.3468 2.63935,-7.09868 2.70475,-10.96729 0.0581,-3.88991 -0.50221,-7.62532 -1.50069,-10.99933 -1.06369,-3.72217 -2.4777,-7.19191 -4.06331,-10.37198 -3.56446,-7.19229 -7.91883,-13.55938 -12.25507,-19.12648 -0.52259,-0.67777 -1.04659,-1.34562 -1.57148,-2.00349 -4.09605,-5.13375 -8.44895,-9.92056 -12.38322,-14.49317 -4.30268,-5.14678 -8.00608,-9.27465 -10.61124,-13.93817 -1.23953,-2.16021 -2.24661,-4.21667 -2.87218,-6.29626 -0.69765,-2.21333 -0.99724,-4.53294 -0.89503,-6.7815 0.10871,-2.97995 1.03717,-6.009201 2.12338,-8.564846 2.93897,-6.881119 10.2931,-14.212052 10.2931,-14.212052 z"
           style="opacity:1;fill:#ff1515;fill-opacity:1;stroke:none;stroke-width:1.33030963;stroke-linecap:butt;stroke-linejoin:miter;stroke-miterlimit:6.5;stroke-dasharray:none;stroke-opacity:1"
           inkscape:connector-curvature="0" />
        <path
           inkscape:connector-curvature="0"
           id="path859"
           d="m 140.62109,79.376953 -3.71289,1.869141 c 0,0 -8.87647,4.465032 -15.88476,9.779297 h -0.002 c -2.71385,2.060984 -5.75997,5.026881 -8.20898,9.220699 v 0.002 l -0.002,0.004 c -1.84716,3.22097 -3.25444,7.06356 -3.83399,11.37696 v 0.002 0.002 c -0.24842,1.9016 -0.20685,3.85159 -0.17187,5.79688 -0.75028,-1.12994 -1.47064,-2.31486 -2.33399,-3.23242 l -0.002,-0.002 v -0.002 c -2.68572,-2.82634 -5.64997,-4.67077 -8.183594,-5.91016 -6.927102,-3.39621 -13.310547,-4.21679 -13.310547,-4.21679 l -4.220703,-0.54493 3.853516,1.80664 c 0,0 5.69298,2.67826 10.417969,7.5254 1.684753,1.73481 3.453556,3.90285 4.574218,6.27343 h 0.002 v 0.002 c 0.820751,1.71965 1.376361,3.62764 1.500001,5.52343 v 0.006 l 0.002,0.004 c 0.1352,1.71559 -0.0647,3.54741 -0.4961,5.46484 v 0.004 0.004 c -0.874605,4.12719 -3.016299,8.15125 -5.580079,12.85351 -2.571802,4.56635 -5.570196,9.19769 -8.445313,14.04492 -0.253974,0.42819 -0.508477,0.85882 -0.761719,1.29297 -3.086248,5.25523 -6.146133,10.92721 -8.589843,17.04492 -1.130178,2.82396 -2.103755,5.76107 -2.8125,8.8125 -0.675078,2.859 -1.055675,5.83745 -1.013672,8.85938 0.03422,2.97691 0.603532,5.9029 1.679687,8.5918 v 0.004 l 0.002,0.002 c 1.242029,3.01388 3.071018,5.43681 5.068359,7.27735 v 0.002 h 0.002 c 2.776916,2.53007 5.764992,4.05189 8.253906,5.02344 3.559283,1.39615 10.084298,2.20633 15.804684,2.71875 5.59488,0.50117 10.15412,0.66994 10.36133,0.67773 2.8e-4,1e-5 0.0134,0.002 0.0137,0.002 0.0472,0.007 0.0784,0.008 0.10938,0.01 0.0225,0.001 0.0539,0.001 0.0781,0.002 9e-5,0 0.0312,0.002 0.0312,0.002 v -0.002 c 0.0429,0.001 0.0792,0.004 0.13282,0.004 0.19551,7.6e-4 0.47192,-0.003 0.82617,-0.0117 0.70849,-0.0172 1.72689,-0.054 2.98047,-0.10937 2.50716,-0.11081 5.95107,-0.29898 9.69726,-0.57227 7.49165,-0.54652 16.15621,-1.41686 21.04883,-2.71875 3.35384,-0.87854 7.4636,-2.36352 11.58594,-5.23047 2.82568,-1.96955 5.62204,-4.81597 7.74609,-8.80664 l 0.004,-0.008 0.004,-0.008 c 1.71704,-3.43315 2.70629,-7.28194 2.77344,-11.25391 v -0.002 c 0.0591,-3.95792 -0.50928,-7.75574 -1.52539,-11.19141 l -0.002,-0.006 c -1.0761,-3.764 -2.50528,-7.269 -4.10547,-10.47851 v -0.002 c -3.58997,-7.2434 -7.9707,-13.64478 -12.32422,-19.23437 l -0.002,-0.004 c -0.52399,-0.67954 -1.04989,-1.35015 -1.57617,-2.00976 -4.11152,-5.15314 -8.46839,-9.94329 -12.39258,-14.50391 l -0.006,-0.008 c -4.30796,-5.15279 -7.98073,-9.25543 -10.53516,-13.82813 l -0.002,-0.004 -0.002,-0.004 c -1.22624,-2.13705 -2.20882,-4.1494 -2.8125,-6.15625 v -0.004 l -0.002,-0.004 c -0.674,-2.13832 -0.96382,-4.38185 -0.86523,-6.55078 v -0.004 -0.004 c 0.10425,-2.85785 1.00504,-5.819429 2.07031,-8.326167 v -0.002 c 2.84902,-6.66906 10.15234,-14.001953 10.15234,-14.001953 z m -6.49023,4.900391 c -2.40183,2.661334 -5.76652,6.686759 -7.82813,11.513672 v 0.002 c -1.10616,2.602584 -2.06166,5.695444 -2.17578,8.794924 -6e-5,10e-4 6e-5,0.003 0,0.004 -2e-5,6.4e-4 3e-5,0.001 0,0.002 -0.1049,2.32312 0.20333,4.71254 0.92188,6.99609 0.64681,2.15022 1.67658,4.24863 2.92773,6.42969 2.65455,4.75194 6.38718,8.90406 10.68164,14.04102 l 0.004,0.002 0.002,0.004 c 3.94279,4.5825 8.29066,9.36287 12.36914,14.47461 0.52262,0.65502 1.04414,1.31931 1.56446,1.99414 v 0.002 l 0.002,0.002 c 4.31781,5.54344 8.64548,11.8726 12.18359,19.01172 v 0.002 c 1.56986,3.14849 2.96863,6.58039 4.01953,10.25782 v 0.004 l 0.002,0.002 c 0.97978,3.31084 1.52971,6.98108 1.47265,10.80078 -0.0636,3.76314 -1.00384,7.41476 -2.63281,10.67383 -2.01947,3.79047 -4.65795,6.47222 -7.32617,8.33203 -3.95851,2.75266 -7.90628,4.18424 -11.16211,5.03711 h -0.002 c -4.65307,1.23841 -13.34361,2.1333 -20.80664,2.67773 -2.56416,0.18706 -4.56203,0.2829 -6.63672,0.39258 2.34556,-0.51286 2.87105,-0.52807 6.12109,-1.41602 6.92508,-1.89201 14.6236,-4.45558 18.06641,-7.74414 h 0.002 v -0.002 c 2.17354,-2.09376 4.54359,-4.64087 5.96094,-7.41016 l 0.002,-0.004 0.002,-0.004 c 0.88373,-1.78517 1.51395,-3.62309 1.33985,-5.26953 -0.0647,-1.25739 -0.47319,-2.53897 -1.01563,-3.74609 -0.57486,-1.40927 -1.51467,-2.82233 -2.58593,-4.49024 l -0.002,-0.006 -0.002,-0.004 c -1.25038,-1.88646 -2.77775,-3.75592 -4.47656,-5.83789 -4.28026,-5.23054 -8.66876,-9.82129 -12.90821,-15.00196 v -0.002 c -0.5307,-0.64295 -1.05927,-1.29174 -1.58398,-1.94727 -4.1132,-5.13867 -8.1772,-10.892 -11.72461,-17.19336 l -0.002,-0.004 -0.002,-0.002 c -2.41451,-4.18675 -4.25679,-5.99521 -5.8125,-10.58007 l -1.15429,-3.40235 -0.14063,3.58985 c -0.22674,5.81205 -0.34951,8.51493 -2.46484,13.63476 l -0.002,0.004 -0.002,0.004 c -2.22056,5.54958 -6.59532,11.02214 -9.548826,15.97852 -0.255628,0.42898 -0.51304,0.85737 -0.771485,1.2832 l -0.002,0.002 c -3.15209,5.22986 -6.512168,10.17824 -9.384765,15.08007 -1.323762,2.26069 -2.526686,4.41996 -3.523438,6.60547 l -0.002,0.002 c -0.915155,2.03214 -1.669337,3.95017 -2.107422,5.875 -0.439381,1.93188 -0.108504,3.80645 0.05664,5.36132 5.4e-5,6.5e-4 -5.5e-5,10e-4 0,0.002 0.1743,2.0528 1.591867,3.67982 2.419922,5.16797 1.339455,2.42322 3.235063,3.18199 4.896484,4.64257 v 0.002 c 2.717047,2.37624 8.471844,4.38142 13.63477,5.91797 1.54214,0.45895 1.57072,0.40457 2.89648,0.7539 -1.57376,-0.10247 -1.63657,-0.0604 -3.55664,-0.23242 -5.681116,-0.5089 -12.243883,-1.38009 -15.437501,-2.63281 l -0.002,-0.002 c -2.386269,-0.93147 -5.218703,-2.37615 -7.839843,-4.76367 l -0.002,-0.002 c -1.865082,-1.71914 -3.572334,-3.97972 -4.734375,-6.79688 l -0.002,-0.006 c -1.011016,-2.52827 -1.549673,-5.29227 -1.582031,-8.10743 v -0.002 c -0.04029,-2.89853 0.324967,-5.77181 0.978516,-8.53906 v -0.002 c 0.690494,-2.97286 1.643943,-5.8457 2.753906,-8.61915 2.407184,-6.02627 5.432506,-11.6407 8.501953,-16.86718 h 0.002 v -0.002 c 0.251659,-0.43144 0.503594,-0.85984 0.755859,-1.28515 2.859279,-4.82054 5.863784,-9.45899 8.464844,-14.07813 l 0.002,-0.004 0.002,-0.004 c 2.565239,-4.70493 4.781002,-8.82418 5.710942,-13.20508 v -0.002 c 0.45108,-2.00556 0.67119,-3.96421 0.52344,-5.85156 v -0.002 c -0.13687,-2.09407 -0.74308,-4.15543 -1.62696,-6.00781 v -0.002 c -1.217466,-2.5747 -3.079141,-4.83223 -4.824218,-6.62891 l -0.002,-0.002 c -2.404402,-2.46656 -5.020005,-4.36114 -7.083984,-5.67774 2.370128,0.61549 5.514465,1.61639 8.806641,3.23047 v 0.002 c 2.433171,1.19025 5.256491,2.95119 7.804691,5.63281 1.2262,1.30369 2.36557,2.84088 3.31836,4.59961 l 1.45507,2.68359 -0.20507,-3.04687 c -0.17164,-2.53964 -0.0998,-5.07173 0.22265,-7.54102 v -0.002 c 0.55543,-4.13188 1.90468,-7.81053 3.66797,-10.88672 2.34461,-4.015055 5.25717,-6.854827 7.86328,-8.833989 4.66296,-3.535839 9.21602,-6.127445 12.30469,-7.80664 z m -21.19727,53.546876 c 1.39889,3.04646 2.94933,5.24882 4.81641,8.48633 l -0.002,-0.006 c 3.59061,6.37808 7.69492,12.18986 11.84375,17.37304 0.52915,0.66108 1.06103,1.31319 1.5957,1.96094 4.27969,5.22963 8.66739,9.82006 12.90625,15 1.69855,2.08166 3.19822,3.92458 4.39648,5.73242 1.07589,1.67503 1.97593,3.05377 2.47266,4.27539 l 0.004,0.0117 0.006,0.0117 c 0.50516,1.12203 0.86115,2.28166 0.91015,3.29688 v 0.0195 l 0.002,0.0195 c 0.12917,1.17896 -0.37915,2.87442 -1.21094,4.55469 -1.29268,2.52192 -3.56641,5.00002 -5.69531,7.05078 -2.95075,2.81683 -10.63522,5.54545 -17.4961,7.41992 -6.76173,1.84738 -12.57017,2.9171 -12.74414,2.94922 -0.21317,-0.0467 -4.38257,-0.95656 -9.36523,-2.43945 -5.10827,-1.52028 -10.869399,-3.66161 -13.136722,-5.64454 v 0.002 c -1.847555,-1.62422 -3.474732,-2.23108 -4.611328,-4.28906 v -0.002 c -0.920207,-1.65376 -2.132059,-3.17197 -2.255859,-4.63672 v -0.006 l -0.002,-0.008 c -0.171484,-1.62172 -0.448938,-3.33482 -0.08398,-4.93945 0.40671,-1.78697 1.12498,-3.62588 2.023438,-5.6211 v -0.002 c 0.965875,-2.11759 2.146939,-4.23641 3.460937,-6.48047 v -0.002 c 2.840504,-4.84692 6.199491,-9.79592 9.375004,-15.06445 l 0.002,-0.002 c 0.25963,-0.42779 0.51818,-0.85742 0.77539,-1.28906 2.87497,-4.82457 7.30721,-10.33748 9.63867,-16.16016 1.79584,-4.34654 2.15366,-7.44365 2.375,-11.57226 z"
           style="color:#000000;font-style:normal;font-variant:normal;font-weight:normal;font-stretch:normal;font-size:medium;line-height:normal;font-family:sans-serif;font-variant-ligatures:normal;font-variant-position:normal;font-variant-caps:normal;font-variant-numeric:normal;font-variant-alternates:normal;font-feature-settings:normal;text-indent:0;text-align:start;text-decoration:none;text-decoration-line:none;text-decoration-style:solid;text-decoration-color:#000000;letter-spacing:normal;word-spacing:normal;text-transform:none;writing-mode:lr-tb;direction:ltr;text-orientation:mixed;dominant-baseline:auto;baseline-shift:baseline;text-anchor:start;white-space:normal;shape-padding:0;clip-rule:nonzero;display:inline;overflow:visible;visibility:visible;opacity:1;isolation:auto;mix-blend-mode:normal;color-interpolation:sRGB;color-interpolation-filters:linearRGB;solid-color:#000000;solid-opacity:1;vector-effect:none;fill:#000000;fill-opacity:1;fill-rule:nonzero;stroke:none;stroke-width:1.33030963;stroke-linecap:butt;stroke-linejoin:miter;stroke-miterlimit:6.5;stroke-dasharray:none;stroke-dashoffset:0;stroke-opacity:1;color-rendering:auto;image-rendering:auto;shape-rendering:auto;text-rendering:auto;enable-background:accumulate" />
        <path
           sodipodi:nodetypes="ccccccccccccccccccccccc"
           style="opacity:1;fill:#ff7c00;fill-opacity:1;stroke:#000000;stroke-width:0;stroke-miterlimit:4;stroke-dasharray:none;stroke-opacity:1"
           d="m 108.51905,147.47828 c -2.34931,5.87138 -5.26639,11.3402 -8.27548,16.38987 -0.264959,0.44463 -0.531509,0.88738 -0.799168,1.32839 -3.266572,5.41981 -6.735652,10.52915 -9.68497,15.56189 -1.361916,2.32585 -2.591538,4.5339 -3.604791,6.75559 -0.936355,2.07922 -1.697831,4.01882 -2.133959,5.93506 -0.41583,1.82819 -0.608317,3.58136 -0.434795,5.22234 0.1535,1.81616 0.796075,3.64403 1.698631,5.26607 1.27814,2.31428 3.249611,4.34407 5.061217,5.93668 4.344573,3.79962 7.334772,4.19558 8.367248,4.70729 5.130917,0.95816 10.516607,1.77155 17.468177,1.7667 7.02084,-0.005 13.97777,-0.73361 19.79849,-1.74287 1.24416,-0.77573 5.147,-3.12653 10.81463,-8.54024 2.22192,-2.14035 4.61976,-4.73579 6.01829,-7.46833 0.88725,-1.79228 1.47886,-3.6206 1.31879,-5.08148 -0.0569,-1.17872 -0.45557,-2.4447 -0.99923,-3.65227 -0.55343,-1.36108 -1.50506,-2.80516 -2.61623,-4.53519 -1.26395,-1.90694 -2.82635,-3.82376 -4.58,-5.97295 -4.39774,-5.37409 -8.92726,-10.1126 -13.32498,-15.48668 -0.54993,-0.66624 -1.09703,-1.33858 -1.64102,-2.01819 -4.2647,-5.32796 -8.48117,-11.29766 -12.16569,-17.84256 -2.41907,-4.19466 -6.93238,-12.66239 -6.93238,-12.66239 0,0 -1.18581,10.88847 -3.35278,16.13327 z"
           id="path2495"
           inkscape:connector-curvature="0" />
        <path
           inkscape:connector-curvature="0"
           id="path2529"
           d="m 112.61315,153.51833 c -0.0225,0.0318 -0.0453,0.0633 -0.0677,0.0951 -0.18709,3.86117 -1.20903,7.59542 -2.63491,11.04653 -1.54586,3.86342 -3.46533,7.46194 -5.44533,10.78466 -0.17434,0.29257 -0.34973,0.5839 -0.52586,0.87409 -2.14943,3.56628 -4.432107,6.92826 -6.372777,10.23984 -0.896151,1.53043 -1.705252,2.98334 -2.37198,4.44523 -0.616129,1.36814 -1.117186,2.64441 -1.404161,3.90532 -0.273619,1.20296 -0.400277,2.35656 -0.286099,3.43633 0.101005,1.19505 0.523824,2.3978 1.117713,3.46512 0.841026,1.52281 2.138268,2.85842 3.330319,3.90637 2.858755,2.50019 5.242665,3.7645 5.922045,4.1012 3.10047,0.8143 6.8936,1.24904 11.46778,1.24584 4.61977,-0.003 8.64278,-0.56281 12.05928,-1.73237 0.81867,-0.51044 3.96511,-2.55883 7.69446,-6.12109 1.46204,-1.40837 3.03983,-3.11619 3.96008,-4.91422 0.58382,-1.17933 0.9731,-2.38238 0.86777,-3.34366 -0.0375,-0.7756 -0.29976,-1.60862 -0.6575,-2.40321 -0.36416,-0.8956 -0.99034,-1.84582 -1.7215,-2.98419 -0.83169,-1.25479 -1.85976,-2.51606 -3.01368,-3.93025 -2.89374,-3.53619 -5.87419,-6.65416 -8.76793,-10.19035 -0.36186,-0.43839 -0.72186,-0.8808 -1.0798,-1.32799 -2.80621,-3.50583 -5.58068,-7.43394 -8.00512,-11.74053 -1.59176,-2.76012 -2.99164,-5.73151 -4.06505,-8.8578 z"
           style="opacity:1;fill:#ffd100;fill-opacity:1;stroke:#000000;stroke-width:0;stroke-miterlimit:4;stroke-dasharray:none;stroke-opacity:1" />
        <path
           style="opacity:1;fill:#ffff00;fill-opacity:1;stroke:#000000;stroke-width:0;stroke-miterlimit:4;stroke-dasharray:none;stroke-opacity:1"
           d="m 113.21511,172.49446 c -0.0133,0.0188 -0.0268,0.0374 -0.04,0.0562 -0.11062,2.28306 -0.71488,4.49107 -1.55798,6.53166 -0.91405,2.28439 -2.04901,4.41214 -3.21975,6.37682 -0.10309,0.17299 -0.20679,0.34525 -0.31094,0.51684 -1.27092,2.10869 -2.62064,4.09658 -3.76813,6.05467 -0.52988,0.90492 -1.00829,1.76401 -1.40252,2.62841 -0.36431,0.80896 -0.66058,1.5636 -0.83026,2.30916 -0.16179,0.71129 -0.23668,1.3934 -0.16917,2.03185 0.0597,0.70662 0.30973,1.41779 0.66089,2.04888 0.49729,0.90041 1.26433,1.69014 1.96917,2.30978 1.69035,1.47833 3.09992,2.2259 3.50163,2.42498 1.83326,0.48149 4.07609,0.73854 6.78074,0.73665 2.7316,-0.002 5.11035,-0.33278 7.13048,-1.02433 0.48407,-0.30181 2.34451,-1.513 4.54963,-3.61931 0.86448,-0.83275 1.79741,-1.84256 2.34154,-2.90571 0.3452,-0.69732 0.57538,-1.40867 0.5131,-1.97706 -0.0222,-0.4586 -0.17725,-0.95116 -0.38877,-1.42099 -0.21533,-0.52955 -0.58558,-1.0914 -1.0179,-1.76451 -0.49177,-0.74194 -1.09965,-1.48771 -1.78195,-2.3239 -1.71103,-2.0909 -3.47333,-3.93451 -5.18435,-6.02541 -0.21397,-0.25921 -0.42683,-0.5208 -0.63848,-0.78522 -1.65927,-2.07295 -3.29977,-4.39559 -4.73331,-6.94201 -0.94119,-1.63202 -1.76892,-3.38897 -2.40361,-5.2375 z"
           id="path2531"
           inkscape:connector-curvature="0" />
      </g>
    </g>
  </g>
</svg>
