<?xml version="1.0" encoding="UTF-8" standalone="no"?>
<!-- Created with Inkscape (http://www.inkscape.org/) -->

<svg
   xmlns:dc="http://purl.org/dc/elements/1.1/"
   xmlns:cc="http://creativecommons.org/ns#"
   xmlns:rdf="http://www.w3.org/1999/02/22-rdf-syntax-ns#"
   xmlns:svg="http://www.w3.org/2000/svg"
   xmlns="http://www.w3.org/2000/svg"
   xmlns:sodipodi="http://sodipodi.sourceforge.net/DTD/sodipodi-0.dtd"
   xmlns:inkscape="http://www.inkscape.org/namespaces/inkscape"
   width="32mm"
   height="32mm"
   viewBox="0 0 32 32"
   version="1.1"
   id="svg8"
   inkscape:version="0.92.3 (2405546, 2018-03-11)"
   sodipodi:docname="wind.svg">
  <defs
     id="defs2">
    <inkscape:path-effect
       effect="bend_path"
       id="path-effect1079"
       is_visible="true"
       bendpath="m 69.169642,205.52977 c 20.962938,-36.86621 60.706848,20.88478 96.761908,10.58333 4.99852,-1.42815 8.34039,-4.96352 10.58333,-9.4494 8.09382,-16.18764 -21.73691,-15.49703 -30.99405,-15.49703"
       prop_scale="1"
       scale_y_rel="false"
       vertical="false" />
    <inkscape:path-effect
       effect="bend_path"
       id="path-effect1069"
       is_visible="true"
       bendpath="m 53.672621,126.91072 c 20.327736,-30.074325 70.409179,15.58993 108.101189,10.20535 10.89466,-1.55638 29.18691,-19.07595 14.3631,-27.97023 -9.40541,-5.64325 -21.13158,-5.76576 -31.75,-7.18155"
       prop_scale="1"
       scale_y_rel="false"
       vertical="false" />
    <inkscape:path-effect
       effect="bend_path"
       id="path-effect989"
       is_visible="true"
       bendpath="m 58.586309,226.31846 c 13.342334,-55.11045 82.123791,17.73056 113.770831,7.18155 10.47907,-3.49303 16.71099,-8.8135 22.67858,-17.76488 16.98043,-25.47065 -41.98993,-20.03274 -51.40477,-20.03274"
       prop_scale="1"
       scale_y_rel="false"
       vertical="false" />
    <inkscape:path-effect
       effect="bend_path"
       id="path-effect969"
       is_visible="true"
       bendpath="m 72.571429,159.79464 c 16.66512,-46.33786 77.184681,14.40768 112.258921,0.37798 12.16275,-4.8651 7.58061,-39.28844 0.75596,-46.11309 -8.18311,-8.18311 -30.49183,-5.45218 -41.19941,-6.4256"
       prop_scale="1"
       scale_y_rel="false"
       vertical="false" />
    <inkscape:perspective
       sodipodi:type="inkscape:persp3d"
       inkscape:vp_x="0.53453904 : 146.70887 : 1"
       inkscape:vp_y="0 : 1000 : 0"
       inkscape:vp_z="256 : 128 : 1"
       inkscape:persp3d-origin="128 : 85.333333 : 1"
       id="perspective831" />
  </defs>
  <sodipodi:namedview
     id="base"
     pagecolor="#ffffff"
     bordercolor="#666666"
     borderopacity="1.0"
     inkscape:pageopacity="0.0"
     inkscape:pageshadow="2"
     inkscape:zoom="11.2"
     inkscape:cx="88.219887"
     inkscape:cy="121.55448"
     inkscape:document-units="mm"
     inkscape:current-layer="layer1-7"
     showgrid="false"
     inkscape:window-width="1366"
     inkscape:window-height="705"
     inkscape:window-x="-8"
     inkscape:window-y="-8"
     inkscape:window-maximized="1" />
  <metadata
     id="metadata5">
    <rdf:RDF>
      <cc:Work
         rdf:about="">
        <dc:format>image/svg+xml</dc:format>
        <dc:type
           rdf:resource="http://purl.org/dc/dcmitype/StillImage" />
        <dc:title></dc:title>
      </cc:Work>
    </rdf:RDF>
  </metadata>
  <g
     inkscape:label="Layer 1"
     inkscape:groupmode="layer"
     id="layer1"
     transform="translate(0,-265)">
    <g
       id="layer1-7"
       inkscape:label="Layer 1">
      <g
         id="g827"
         transform="matrix(0.12757262,0,0,0.12757262,-0.32929599,259.44023)">
        <circle
           style="opacity:1;fill:#c0eceb;fill-opacity:1;stroke:#000000;stroke-width:6.99130487;stroke-miterlimit:4;stroke-dasharray:none;stroke-opacity:1"
           id="path2541"
           cx="128"
           cy="169"
           r="121.46408" />
        <path
           inkscape:connector-curvature="0"
           id="rect847-8"
           d="m 63.264291,141.7625 c 0.918982,-0.56997 1.871051,-1.10138 2.855154,-1.59042 5.544577,-2.60447 11.390102,-3.66321 16.955804,-3.6294 h 6e-6 c 6.259104,0.009 12.221814,1.00186 17.803075,2.38438 h 10e-6 c 6.37236,1.55265 12.48084,3.55544 18.39945,5.65273 h 1e-5 c 12.83365,4.52871 25.10368,9.58654 37.45522,13.22835 5.97111,1.75788 11.90569,3.21575 17.80724,3.99815 5.51171,0.71768 10.95242,0.92519 16.09447,0.1637 2.4281,-0.22732 5.13654,-1.72508 8.06956,-3.53903 v -2e-5 c 3.12189,-2.1043 5.88939,-4.57712 7.89316,-7.41278 1.54676,-2.56812 2.88326,-4.81123 2.47268,-6.2367 -0.0181,-0.54304 -0.25156,-1.18161 -0.5933,-1.68822 -0.42226,-0.77654 -1.47949,-1.54904 -2.78552,-2.41334 0,0 -10e-6,0 -10e-6,0 -4.59975,-2.86219 -10.38814,-4.36469 -16.53512,-5.46725 -2.27884,-0.3877 -4.62235,-0.69331 -7.02305,-0.97114 -6.86421,-0.79438 -12.26378,-4.50422 -11.73118,-8.54091 0.50529,-3.82989 6.34288,-6.51594 13.38877,-5.69027 2.53511,0.29707 5.11739,0.63628 7.73939,1.07193 7.13215,1.12836 14.58652,3.2455 21.5331,7.31111 0,1e-5 0,1e-5 2e-5,1e-5 2.61077,1.48579 5.17317,3.68729 7.30106,6.70035 1.72998,2.57198 2.76592,5.55129 3.00089,8.71038 0.12489,6.40654 -2.0967,11.76068 -5.12793,15.56982 -3.23742,4.46547 -7.24461,8.13306 -11.6122,10.99709 l -2e-5,2e-5 c -3.76354,2.62836 -8.43678,4.87423 -13.96396,5.78337 -6.81686,0.94692 -13.56955,0.7448 -20.03042,-0.14752 -6.89881,-0.93894 -13.55294,-2.55076 -19.96588,-4.46001 -13.28112,-3.94843 -25.78569,-9.08234 -38.15883,-13.45661 h -10e-6 c -5.72816,-2.0163 -11.37118,-3.88086 -17.003051,-5.23805 h -10e-6 c -4.96237,-1.17326 -9.780968,-2.03251 -14.370752,-1.98123 h -9e-6 c -3.958369,0.0716 -7.742016,0.65327 -10.770176,2.19819 -0.53944,0.24839 -1.068273,0.53321 -1.585445,0.85065 -2.103048,1.29087 -4.364577,2.42269 -6.587689,3.05008 -2.194279,0.61927 -4.460964,0.76747 -6.098892,-0.32408 -1.632398,-1.08787 -2.395422,-3.3284 -1.658967,-6.23437 0.730305,-2.88169 2.964104,-6.24914 6.833352,-8.64896 z"
           style="opacity:1;fill:#ffffff;fill-opacity:1;stroke:none;stroke-width:0.47472063;stroke-linejoin:round;stroke-miterlimit:6.5;stroke-dasharray:none;stroke-opacity:1" />
        <path
           inkscape:connector-curvature="0"
           id="rect847-6"
           d="m 81.104712,202.84897 c 1.267723,-1.2131 2.672375,-2.34169 4.224587,-3.34939 3.937514,-2.39764 8.383216,-3.53213 12.765426,-3.46966 h 1e-5 c 4.639315,0.095 8.919715,1.14073 12.749055,2.53374 l 1e-5,2e-5 c 4.44967,1.5772 8.5888,3.53006 12.52955,5.51254 h 1e-5 c 8.63888,4.30974 16.70075,8.94157 25.00066,11.99218 3.97959,1.45993 7.94437,2.6007 11.85492,3.02593 3.75256,0.40877 7.51217,0.22974 10.92619,-0.77138 2.66147,-0.54316 5.07269,-3.1827 6.697,-6.19642 v -1e-5 c 0.47133,-1.16309 0.86788,-2.00019 0.73168,-2.39032 0.0219,-0.11372 -0.0795,-0.3555 -0.18882,-0.47338 -0.17546,-0.33155 -0.82458,-0.68611 -1.68553,-1.18103 0,0 0,0 0,0 -1.05409,-0.5424 -2.35629,-0.93539 -3.81492,-1.30781 -3.26199,-0.81398 -6.82488,-1.12366 -10.56245,-1.31796 -0.24843,-0.0121 -0.4976,-0.0229 -0.7475,-0.0329 -4.46178,-0.17746 -8.31839,-2.53258 -8.31868,-5.66327 -2.7e-4,-3.03211 3.7611,-5.64754 8.75512,-5.45378 0.27855,0.0108 0.55776,0.0226 0.83765,0.0357 4.07022,0.17562 8.33481,0.5864 12.66758,1.6212 1.95427,0.45836 4.02429,1.13089 6.11834,2.14645 0,0 0,0 1e-5,0 1.79706,0.82047 3.6758,2.15557 5.37431,4.12262 1.62277,2.00676 2.55558,4.44888 2.68334,7.07436 6.8e-4,3.15079 -0.78467,5.78985 -1.89806,7.79622 -2.55611,5.3471 -7.26575,9.89417 -13.59231,11.91902 -5.04994,1.41716 -10.24803,1.71509 -15.24161,1.12809 -5.10657,-0.60139 -9.94341,-1.9505 -14.47109,-3.65102 -9.41564,-3.53071 -17.84616,-8.32273 -26.10662,-12.47274 h -1e-5 c -3.80784,-1.89645 -7.51784,-3.66725 -11.24214,-4.96637 v 0 c -3.23146,-1.09157 -6.31604,-1.92716 -9.161585,-1.90339 h -10e-6 c -2.45868,-0.003 -4.90903,0.57177 -6.779358,1.78949 -0.843038,0.48334 -1.634192,1.11552 -2.384094,1.86017 -1.245704,1.23695 -2.746748,2.27925 -4.357701,2.87715 -1.591741,0.59076 -3.270102,0.72703 -4.607823,-0.0274 -1.329103,-0.74956 -2.111122,-2.29219 -2.0122,-4.3048 0.09848,-2.00365 1.102086,-4.4397 3.257063,-6.50182 z"
           style="opacity:1;fill:#ffffff;fill-opacity:1;stroke:none;stroke-width:0.36864507;stroke-linejoin:round;stroke-miterlimit:6.5;stroke-dasharray:none;stroke-opacity:1" />
      </g>
    </g>
  </g>
</svg>
